<svg xmlns="http://www.w3.org/2000/svg" viewBox="0 0 90 139.87"><defs><style>.cls-1{fill:#231f20;}</style></defs><title>Asset 2</title><g id="Layer_2" data-name="Layer 2"><g id="Layer_1-2" data-name="Layer 1"><path class="cls-1" d="M23,135.27C10.32,123.83,0,114.1,0,104.37V35.5C0,25.77,10.32,16,23,4.59s23,.23,23,15.79V41.62a51.4,51.4,0,0,0-10,1V22.06c0-8.4-5.83-12.43-13-7.42S10,27.54,10,33.51v72.85c0,6,5.83,13.84,13,18.86s13,1,13-7.41V90.45a68.75,68.75,0,0,0,10,.72v28.32C46,135.05,35.68,146.7,23,135.27Z"/><path class="cls-1" d="M90,110.06c-1.75,0-3.5,0-5.26-.08-3.87-.16-7.5-2.3-10.24-5.68a19,19,0,0,1-4.25-11.89,29,29,0,0,0-5.21-17c3.33-.13,6.65-.25,10-.35,7.72-.19,14-7.64,14-16.74S82.71,41.73,75,43.12C56.32,46.22,37.66,53.85,19,54v53.29A91,91,0,0,1,29,108V76.87c5.28-.12,10.56-.32,15.84-.54,8.48-.56,15.38,6.37,15.38,15.44a31.7,31.7,0,0,0,7.19,19.5c4.61,5.85,10.74,10,17.26,10.46h.07c1.76.11,3.51.15,5.26.13ZM29,68.45V61.71c15.33-1.43,30.66-5.38,46-7.17,2.2-.27,4,1.65,4,4.22s-1.8,4.75-4,4.91C59.66,64.87,44.33,67.5,29,68.45Z"/></g></g></svg>