<svg xmlns="http://www.w3.org/2000/svg" viewBox="0 0 270.04 419.18"><defs><style>.cls-1{fill:#231f20;}</style></defs><title>Asset 1</title><g id="Layer_2" data-name="Layer 2"><g id="Layer_1-2" data-name="Layer 1"><path class="cls-1" d="M69,405.64a372.2,372.2,0,0,1-48.77-48.57C7.74,341.56,0,329.2,0,312.91V106.27C0,90,7.74,77.62,20.23,62.11A372.2,372.2,0,0,1,69,13.54C88-2,105.27-4,117.77,6.59c12.49,10,20.23,32.6,20.23,54.32v63.72a154.76,154.76,0,0,0-30,2.88V66c0-25.22-17.5-37.3-39-22.25S30,82.39,30,100.31V318.87c0,17.92,17.5,41.55,39,56.61s39,3,39-22.25V271.15a204.56,204.56,0,0,0,30,2.16v85c0,21.72-7.74,44.29-20.23,54.32C105.27,423.14,88,421.16,69,405.64Z" transform="translate(0 0)"/><path class="cls-1" d="M270,330c-5.26.06-10.52,0-15.78-.24-11.62-.47-22.53-6.89-30.75-17A56.83,56.83,0,0,1,210.69,277c0-19.37-5.82-37.46-15.62-50.92,10-.4,20-.77,29.93-1.05,23.16-.58,42-22.92,42-50.24s-18.84-49.86-42-45.7c-56,9.3-112,32.2-168,32.78v159.9a269.94,269.94,0,0,1,30,2.05V230.4c15.84-.37,31.69-1,47.53-1.62,25.45-1.66,46.16,19.1,46.16,46.33,0,20.51,7.65,40.74,21.56,58.51,13.85,17.54,32.24,30.16,51.8,31.38l.22,0c5.26.3,10.51.43,15.77.36Q270,347.68,270,330ZM87,205.14V184.93c46-4.29,92-16.15,138-21.54,6.62-.8,12,5,12,12.67s-5.38,14.24-12,14.74C179,194.39,133,202.28,87,205.14Z" transform="translate(0 0)"/></g></g></svg>